<svg width="1339" height="366" viewBox="0 0 1339 366" fill="none" xmlns="http://www.w3.org/2000/svg">
<path d="M0 0V365.8L83.1 303.4H303.5V0H0ZM151.7 153.9C104.4 154.2 64.9 115.6 64.1 68H93.7C93.9 99.8 120.2 125.6 151.7 125.4C182.8 125.1 208.5 99.4 208.7 68H238.3C237.6 115.2 198.7 153.6 151.7 153.9Z" fill="#1F8E97"/>
<path d="M358.4 227.5V14.3H399.5V195.5H493V227.5H358.4Z" fill="#0F4A54"/>
<path d="M600.5 231.1C585.7 231.1 572.4 227.7 560.8 220.9C549.1 214.1 539.9 204.7 533.1 192.6C526.3 180.5 522.9 166.7 522.9 151C522.9 135 526.3 120.9 533.1 108.8C539.9 96.7 549.2 87.3 561 80.5C572.8 73.7 586.1 70.3 600.9 70.3C615.7 70.3 628.9 73.7 640.5 80.5C652.1 87.3 661.3 96.7 668.1 108.7C674.9 120.7 678.3 134.7 678.3 150.7C678.3 166.5 674.9 180.5 668.1 192.6C661.3 204.7 652.1 214.1 640.4 220.9C628.6 227.7 615.4 231.1 600.5 231.1ZM600.5 195.5C607 195.5 612.9 193.8 618.3 190.5C623.7 187.1 628 182.1 631.4 175.4C634.7 168.7 636.4 160.5 636.4 150.7C636.4 140.8 634.8 132.5 631.5 125.9C628.2 119.3 624 114.3 618.7 111C613.4 107.6 607.5 106 601 106C594.3 106 588.2 107.7 582.7 111C577.2 114.3 572.8 119.3 569.6 125.9C566.4 132.5 564.7 140.8 564.7 150.7C564.7 160.4 566.3 168.7 569.4 175.4C572.5 182.1 576.9 187.1 582.3 190.5C588 193.8 594 195.5 600.5 195.5Z" fill="#0F4A54"/>
<path d="M771.1 231.1C758.5 231.1 747.8 228.5 739 223.3C730.2 218.1 723.5 210.5 718.9 200.5C714.3 190.5 712 178 712 163.2V74H752.8V159.3C752.8 171.7 755.4 181 760.6 187.2C765.8 193.4 773.7 196.5 784.5 196.5C791.4 196.5 797.5 194.9 802.9 191.8C808.3 188.7 812.5 184.1 815.5 178.1C818.5 172.1 820.1 164.9 820.1 156.3V74.1H861.2V227.6H825L822 202.6C817.3 211.3 810.7 218.3 802.1 223.5C793.4 228.5 783.1 231.1 771.1 231.1Z" fill="#0F4A54"/>
<path d="M901.1 227.5V74H937.3L940.6 94.1C945.5 87 951.9 81.3 959.9 76.9C967.9 72.5 977.1 70.4 987.5 70.4C995 70.4 1001.9 71.4 1008.1 73.3C1014.3 75.2 1019.7 78.1 1024.4 82C1029.1 85.9 1032.9 90.7 1036 96.6C1041.9 88.7 1049.4 82.3 1058.5 77.6C1067.6 72.8 1077.6 70.4 1088.3 70.4C1101.5 70.4 1112.6 73.1 1121.6 78.5C1130.6 83.9 1137.4 91.6 1142 101.8C1146.6 112 1148.9 124.4 1148.9 139.3V227.6H1108.1V143.1C1108.1 130.7 1105.7 121.3 1100.8 114.8C1095.9 108.3 1088.6 105.1 1078.9 105.1C1072.4 105.1 1066.6 106.7 1061.5 110C1056.4 113.2 1052.5 117.9 1049.6 124C1046.8 130.1 1045.3 137.4 1045.3 145.9V227.5H1004.5V143.1C1004.5 130.7 1002.1 121.3 997.2 114.8C992.3 108.3 984.8 105.1 974.7 105.1C968.4 105.1 962.8 106.7 958 110C953.1 113.2 949.3 117.9 946.4 124C943.6 130.1 942.1 137.4 942.1 145.9V227.5H901.1Z" fill="#0F4A54"/>
<path d="M1260.5 231.1C1245.7 231.1 1232.4 227.7 1220.8 220.9C1209.1 214.1 1199.9 204.7 1193.1 192.6C1186.3 180.5 1182.9 166.7 1182.9 151C1182.9 135 1186.3 120.9 1193.1 108.8C1199.9 96.7 1209.2 87.3 1221 80.5C1232.8 73.7 1246.1 70.3 1260.9 70.3C1275.7 70.3 1288.9 73.7 1300.5 80.5C1312.1 87.3 1321.3 96.7 1328.1 108.7C1334.9 120.7 1338.3 134.7 1338.3 150.7C1338.3 166.5 1334.9 180.5 1328.1 192.6C1321.3 204.7 1312.1 214.1 1300.4 220.9C1288.5 227.7 1275.3 231.1 1260.5 231.1ZM1260.5 195.5C1267 195.5 1272.9 193.8 1278.3 190.5C1283.7 187.1 1288 182.1 1291.4 175.4C1294.7 168.7 1296.4 160.5 1296.4 150.7C1296.4 140.8 1294.8 132.5 1291.5 125.9C1288.2 119.3 1284 114.3 1278.7 111C1273.4 107.6 1267.5 106 1261 106C1254.3 106 1248.2 107.7 1242.7 111C1237.2 114.3 1232.8 119.3 1229.6 125.9C1226.4 132.5 1224.7 140.8 1224.7 150.7C1224.7 160.4 1226.3 168.7 1229.4 175.4C1232.5 182.1 1236.9 187.1 1242.3 190.5C1248 193.8 1254 195.5 1260.5 195.5Z" fill="#0F4A54"/>
<path d="M407.55 283.567C407.55 288.175 406.718 292.157 405.054 295.514C403.39 298.87 401.107 301.459 398.206 303.279C395.305 305.1 391.991 306.01 388.264 306.01C384.538 306.01 381.224 305.1 378.323 303.279C375.421 301.459 373.139 298.87 371.475 295.514C369.811 292.157 368.979 288.175 368.979 283.567C368.979 278.958 369.811 274.976 371.475 271.62C373.139 268.263 375.421 265.675 378.323 263.854C381.224 262.034 384.538 261.123 388.264 261.123C391.991 261.123 395.305 262.034 398.206 263.854C401.107 265.675 403.39 268.263 405.054 271.62C406.718 274.976 407.55 278.958 407.55 283.567ZM402.43 283.567C402.43 279.783 401.797 276.59 400.531 273.988C399.28 271.385 397.58 269.415 395.433 268.078C393.299 266.741 390.91 266.073 388.264 266.073C385.619 266.073 383.223 266.741 381.075 268.078C378.942 269.415 377.242 271.385 375.976 273.988C374.725 276.59 374.099 279.783 374.099 283.567C374.099 287.35 374.725 290.543 375.976 293.145C377.242 295.748 378.942 297.718 381.075 299.055C383.223 300.392 385.619 301.06 388.264 301.06C390.91 301.06 393.299 300.392 395.433 299.055C397.58 297.718 399.28 295.748 400.531 293.145C401.797 290.543 402.43 287.35 402.43 283.567ZM420.799 285.7V305.412H415.764V272.644H420.628V277.764H421.055C421.823 276.1 422.989 274.763 424.553 273.753C426.118 272.729 428.137 272.217 430.612 272.217C432.831 272.217 434.772 272.672 436.436 273.582C438.1 274.478 439.395 275.844 440.319 277.678C441.244 279.499 441.706 281.803 441.706 284.591V305.412H436.671V284.932C436.671 282.358 436.003 280.352 434.666 278.916C433.329 277.465 431.494 276.74 429.161 276.74C427.554 276.74 426.118 277.088 424.852 277.785C423.6 278.482 422.612 279.499 421.887 280.836C421.161 282.173 420.799 283.794 420.799 285.7ZM455.941 261.721V305.412H450.906V261.721H455.941ZM465.162 305.412V272.644H470.197V305.412H465.162ZM467.722 267.182C466.741 267.182 465.895 266.848 465.184 266.179C464.487 265.511 464.138 264.707 464.138 263.769C464.138 262.83 464.487 262.026 465.184 261.358C465.895 260.69 466.741 260.355 467.722 260.355C468.704 260.355 469.543 260.69 470.24 261.358C470.951 262.026 471.307 262.83 471.307 263.769C471.307 264.707 470.951 265.511 470.24 266.179C469.543 266.848 468.704 267.182 467.722 267.182ZM484.454 285.7V305.412H479.419V272.644H484.283V277.764H484.71C485.478 276.1 486.644 274.763 488.208 273.753C489.773 272.729 491.792 272.217 494.267 272.217C496.486 272.217 498.427 272.672 500.091 273.582C501.755 274.478 503.05 275.844 503.974 277.678C504.899 279.499 505.361 281.803 505.361 284.591V305.412H500.326V284.932C500.326 282.358 499.658 280.352 498.321 278.916C496.984 277.465 495.149 276.74 492.816 276.74C491.209 276.74 489.773 277.088 488.507 277.785C487.255 278.482 486.267 279.499 485.542 280.836C484.816 282.173 484.454 283.794 484.454 285.7ZM528.3 306.095C525.143 306.095 522.419 305.398 520.129 304.004C517.854 302.596 516.097 300.634 514.86 298.116C513.637 295.585 513.025 292.641 513.025 289.284C513.025 285.928 513.637 282.969 514.86 280.409C516.097 277.835 517.818 275.829 520.022 274.393C522.241 272.942 524.83 272.217 527.788 272.217C529.495 272.217 531.18 272.501 532.844 273.07C534.508 273.639 536.023 274.564 537.388 275.844C538.754 277.11 539.842 278.788 540.652 280.879C541.463 282.969 541.868 285.544 541.868 288.601V290.735H516.609V286.383H536.748C536.748 284.534 536.378 282.884 535.639 281.433C534.914 279.982 533.875 278.838 532.524 277.998C531.187 277.159 529.608 276.74 527.788 276.74C525.783 276.74 524.047 277.238 522.583 278.233C521.132 279.214 520.015 280.495 519.233 282.073C518.451 283.652 518.06 285.344 518.06 287.151V290.052C518.06 292.527 518.486 294.625 519.34 296.346C520.207 298.052 521.409 299.354 522.945 300.25C524.481 301.131 526.266 301.572 528.3 301.572C529.623 301.572 530.817 301.387 531.884 301.018C532.965 300.634 533.897 300.065 534.679 299.311C535.461 298.543 536.066 297.59 536.492 296.452L541.356 297.818C540.844 299.467 539.984 300.918 538.775 302.17C537.566 303.407 536.073 304.374 534.295 305.071C532.517 305.754 530.519 306.095 528.3 306.095ZM591 272.644C590.744 270.482 589.706 268.804 587.886 267.609C586.065 266.414 583.832 265.817 581.187 265.817C579.252 265.817 577.56 266.13 576.109 266.755C574.673 267.381 573.549 268.242 572.738 269.337C571.942 270.432 571.544 271.677 571.544 273.07C571.544 274.237 571.821 275.239 572.376 276.078C572.945 276.903 573.67 277.593 574.552 278.148C575.434 278.688 576.358 279.136 577.325 279.492C578.292 279.833 579.181 280.11 579.992 280.324L584.429 281.519C585.567 281.817 586.833 282.23 588.227 282.756C589.635 283.282 590.979 284 592.259 284.911C593.553 285.807 594.62 286.959 595.459 288.367C596.298 289.775 596.718 291.503 596.718 293.551C596.718 295.912 596.099 298.045 594.862 299.951C593.639 301.857 591.847 303.372 589.486 304.495C587.139 305.619 584.287 306.18 580.931 306.18C577.802 306.18 575.092 305.676 572.802 304.666C570.527 303.656 568.735 302.248 567.426 300.442C566.132 298.635 565.4 296.538 565.229 294.148H570.69C570.833 295.798 571.387 297.163 572.354 298.244C573.336 299.311 574.573 300.107 576.067 300.634C577.574 301.146 579.196 301.402 580.931 301.402C582.95 301.402 584.764 301.075 586.371 300.42C587.978 299.752 589.251 298.827 590.19 297.647C591.128 296.452 591.598 295.058 591.598 293.466C591.598 292.015 591.192 290.834 590.382 289.924C589.571 289.014 588.504 288.274 587.182 287.705C585.859 287.136 584.429 286.639 582.893 286.212L577.517 284.676C574.104 283.695 571.402 282.294 569.41 280.473C567.419 278.653 566.424 276.27 566.424 273.326C566.424 270.88 567.085 268.747 568.408 266.926C569.745 265.091 571.537 263.669 573.784 262.659C576.045 261.635 578.57 261.123 581.357 261.123C584.173 261.123 586.677 261.628 588.867 262.638C591.057 263.634 592.792 264.999 594.072 266.734C595.367 268.469 596.049 270.439 596.12 272.644H591ZM609.769 285.7V305.412H604.734V261.721H609.769V277.764H610.195C610.963 276.071 612.115 274.727 613.652 273.732C615.202 272.722 617.264 272.217 619.838 272.217C622.071 272.217 624.027 272.665 625.705 273.561C627.383 274.443 628.685 275.801 629.609 277.636C630.548 279.456 631.017 281.775 631.017 284.591V305.412H625.983V284.932C625.983 282.329 625.307 280.317 623.956 278.894C622.619 277.458 620.763 276.74 618.388 276.74C616.738 276.74 615.259 277.088 613.95 277.785C612.656 278.482 611.632 279.499 610.878 280.836C610.139 282.173 609.769 283.794 609.769 285.7ZM653.541 306.095C650.582 306.095 647.987 305.391 645.754 303.983C643.535 302.575 641.8 300.605 640.548 298.074C639.311 295.542 638.692 292.584 638.692 289.199C638.692 285.785 639.311 282.806 640.548 280.26C641.8 277.714 643.535 275.737 645.754 274.329C647.987 272.921 650.582 272.217 653.541 272.217C656.499 272.217 659.087 272.921 661.306 274.329C663.539 275.737 665.274 277.714 666.512 280.26C667.763 282.806 668.389 285.785 668.389 289.199C668.389 292.584 667.763 295.542 666.512 298.074C665.274 300.605 663.539 302.575 661.306 303.983C659.087 305.391 656.499 306.095 653.541 306.095ZM653.541 301.572C655.788 301.572 657.637 300.996 659.087 299.844C660.538 298.692 661.612 297.178 662.309 295.3C663.006 293.423 663.354 291.389 663.354 289.199C663.354 287.008 663.006 284.968 662.309 283.076C661.612 281.184 660.538 279.655 659.087 278.489C657.637 277.323 655.788 276.74 653.541 276.74C651.293 276.74 649.444 277.323 647.994 278.489C646.543 279.655 645.469 281.184 644.772 283.076C644.075 284.968 643.727 287.008 643.727 289.199C643.727 291.389 644.075 293.423 644.772 295.3C645.469 297.178 646.543 298.692 647.994 299.844C649.444 300.996 651.293 301.572 653.541 301.572ZM676.074 317.701V272.644H680.939V277.849H681.536C681.906 277.28 682.418 276.555 683.072 275.673C683.74 274.777 684.693 273.981 685.931 273.284C687.182 272.573 688.875 272.217 691.008 272.217C693.767 272.217 696.199 272.907 698.304 274.286C700.409 275.666 702.052 277.622 703.232 280.153C704.413 282.685 705.003 285.672 705.003 289.113C705.003 292.584 704.413 295.592 703.232 298.138C702.052 300.669 700.416 302.632 698.326 304.026C696.235 305.405 693.824 306.095 691.094 306.095C688.989 306.095 687.303 305.747 686.037 305.05C684.772 304.339 683.797 303.535 683.115 302.639C682.432 301.729 681.906 300.975 681.536 300.378H681.109V317.701H676.074ZM681.024 289.028C681.024 291.503 681.387 293.686 682.112 295.578C682.837 297.455 683.897 298.927 685.291 299.994C686.685 301.046 688.391 301.572 690.411 301.572C692.516 301.572 694.272 301.018 695.68 299.908C697.103 298.785 698.169 297.277 698.88 295.386C699.606 293.48 699.968 291.361 699.968 289.028C699.968 286.724 699.613 284.648 698.902 282.799C698.205 280.935 697.145 279.463 695.723 278.382C694.315 277.287 692.544 276.74 690.411 276.74C688.363 276.74 686.642 277.259 685.248 278.297C683.854 279.321 682.802 280.758 682.091 282.607C681.379 284.441 681.024 286.582 681.024 289.028Z" fill="#1F8E97"/>
</svg>
